{
    "asset" : {
        "generator" : "Khronos glTF Blender I/O v1.0.5",
        "version" : "2.0"
    },
    "scene" : 0,
    "scenes" : [
        {
            "name" : "Scene",
            "nodes" : [
                0,
                1,
                3
            ]
        }
    ],
    "nodes" : [
        {
            "name" : "Light",
            "rotation" : [
                0.16907575726509094,
                0.7558803558349609,
                -0.27217137813568115,
                0.570947527885437
            ],
            "translation" : [
                4.076245307922363,
                5.903861999511719,
                -1.0054539442062378
            ]
        },
        {
            "name" : "Camera",
            "rotation" : [
                0.483536034822464,
                0.33687159419059753,
                -0.20870360732078552,
                0.7804827094078064
            ],
            "translation" : [
                7.358891487121582,
                4.958309173583984,
                6.925790786743164
            ]
        },
        {
            "mesh" : 0,
            "name" : "uc4_env_expandable_crate_01_closed_a_91",
            "translation" : [
                -0.8559465408325195,
                0.48741406202316284,
                0
            ]
        },
        {
            "children" : [
                2
            ],
            "name" : "expandable_crate_01_closed_a",
            "rotation" : [
                0.7071068286895752,
                0,
                0,
                0.7071067094802856
            ],
            "scale" : [
                0.009999999776482582,
                0.009999999776482582,
                0.009999999776482582
            ]
        }
    ],
    "materials" : [
        {
            "doubleSided" : true,
            "name" : "Material.002",
            "pbrMetallicRoughness" : {
                "roughnessFactor" : 0.5527864098548889
            }
        },
        {
            "doubleSided" : true,
            "name" : "Material.003",
            "pbrMetallicRoughness" : {
                "roughnessFactor" : 0.5527864098548889
            }
        }
    ],
    "meshes" : [
        {
            "name" : "uc4_env_expandable_crate_01_closed_a_91",
            "primitives" : [
                {
                    "attributes" : {
                        "POSITION" : 0,
                        "NORMAL" : 1,
                        "TEXCOORD_0" : 2,
                        "TEXCOORD_1" : 3,
                        "COLOR_0" : 4
                    },
                    "indices" : 5,
                    "material" : 0
                },
                {
                    "attributes" : {
                        "POSITION" : 6,
                        "NORMAL" : 7,
                        "TEXCOORD_0" : 8,
                        "TEXCOORD_1" : 9,
                        "COLOR_0" : 10
                    },
                    "indices" : 11,
                    "material" : 1
                }
            ]
        }
    ],
    "accessors" : [
        {
            "bufferView" : 0,
            "componentType" : 5126,
            "count" : 11400,
            "max" : [
                1.8214359283447266,
                0.049839019775390625,
                0.020483970642089844
            ],
            "min" : [
                -0.0115509033203125,
                -1.1104888916015625,
                -1.100006103515625
            ],
            "type" : "VEC3"
        },
        {
            "bufferView" : 1,
            "componentType" : 5126,
            "count" : 11400,
            "type" : "VEC3"
        },
        {
            "bufferView" : 2,
            "componentType" : 5126,
            "count" : 11400,
            "type" : "VEC2"
        },
        {
            "bufferView" : 3,
            "componentType" : 5126,
            "count" : 11400,
            "type" : "VEC2"
        },
        {
            "bufferView" : 4,
            "componentType" : 5126,
            "count" : 11400,
            "type" : "VEC4"
        },
        {
            "bufferView" : 5,
            "componentType" : 5123,
            "count" : 11400,
            "type" : "SCALAR"
        },
        {
            "bufferView" : 6,
            "componentType" : 5126,
            "count" : 12984,
            "max" : [
                1.8331642150878906,
                0.06414794921875,
                0.007587790489196777
            ],
            "min" : [
                -0.06835174560546875,
                -1.1077041625976562,
                -1.1354827880859375
            ],
            "type" : "VEC3"
        },
        {
            "bufferView" : 7,
            "componentType" : 5126,
            "count" : 12984,
            "type" : "VEC3"
        },
        {
            "bufferView" : 8,
            "componentType" : 5126,
            "count" : 12984,
            "type" : "VEC2"
        },
        {
            "bufferView" : 9,
            "componentType" : 5126,
            "count" : 12984,
            "type" : "VEC2"
        },
        {
            "bufferView" : 10,
            "componentType" : 5126,
            "count" : 12984,
            "type" : "VEC4"
        },
        {
            "bufferView" : 11,
            "componentType" : 5123,
            "count" : 12984,
            "type" : "SCALAR"
        }
    ],
    "bufferViews" : [
        {
            "buffer" : 0,
            "byteLength" : 136800,
            "byteOffset" : 0
        },
        {
            "buffer" : 0,
            "byteLength" : 136800,
            "byteOffset" : 136800
        },
        {
            "buffer" : 0,
            "byteLength" : 91200,
            "byteOffset" : 273600
        },
        {
            "buffer" : 0,
            "byteLength" : 91200,
            "byteOffset" : 364800
        },
        {
            "buffer" : 0,
            "byteLength" : 182400,
            "byteOffset" : 456000
        },
        {
            "buffer" : 0,
            "byteLength" : 22800,
            "byteOffset" : 638400
        },
        {
            "buffer" : 0,
            "byteLength" : 155808,
            "byteOffset" : 661200
        },
        {
            "buffer" : 0,
            "byteLength" : 155808,
            "byteOffset" : 817008
        },
        {
            "buffer" : 0,
            "byteLength" : 103872,
            "byteOffset" : 972816
        },
        {
            "buffer" : 0,
            "byteLength" : 103872,
            "byteOffset" : 1076688
        },
        {
            "buffer" : 0,
            "byteLength" : 207744,
            "byteOffset" : 1180560
        },
        {
            "buffer" : 0,
            "byteLength" : 25968,
            "byteOffset" : 1388304
        }
    ],
    "buffers" : [
        {
            "byteLength" : 1414272,
            "uri" : "data:application/octet-stream;base64,"
        }
    ]
}
