{
    "asset" : {
        "generator" : "Khronos glTF Blender I/O v1.0.5",
        "version" : "2.0"
    },
    "scene" : 0,
    "scenes" : [
        {
            "name" : "Scene",
            "nodes" : [
                0,
                1,
                3
            ]
        }
    ],
    "nodes" : [
        {
            "name" : "Light",
            "rotation" : [
                0.16907575726509094,
                0.7558803558349609,
                -0.27217137813568115,
                0.570947527885437
            ],
            "translation" : [
                4.076245307922363,
                5.903861999511719,
                -1.0054539442062378
            ]
        },
        {
            "name" : "Camera",
            "rotation" : [
                0.483536034822464,
                0.33687159419059753,
                -0.20870360732078552,
                0.7804827094078064
            ],
            "translation" : [
                7.358891487121582,
                4.958309173583984,
                6.925790786743164
            ]
        },
        {
            "mesh" : 0,
            "name" : "uppercity_04_in_pickup_truck_02_1",
            "rotation" : [
                -0.03710164502263069,
                0.03827313333749771,
                -0.6945058107376099,
                0.7175098061561584
            ],
            "scale" : [
                0.009999999776482582,
                0.009999999776482582,
                0.009999999776482582
            ]
        },
        {
            "children" : [
                2
            ],
            "name" : "pickup_truck_02",
            "rotation" : [
                0.7071068286895752,
                0,
                0,
                0.7071067094802856
            ]
        }
    ],
    "materials" : [
        {
            "doubleSided" : true,
            "name" : "Material.001",
            "pbrMetallicRoughness" : {
                "roughnessFactor" : 0.5527864098548889
            }
        }
    ],
    "meshes" : [
        {
            "name" : "uppercity_04_in_pickup_truck_02_1",
            "primitives" : [
                {
                    "attributes" : {
                        "POSITION" : 0,
                        "NORMAL" : 1,
                        "TEXCOORD_0" : 2,
                        "TEXCOORD_1" : 3,
                        "COLOR_0" : 4
                    },
                    "indices" : 5,
                    "material" : 0
                }
            ]
        }
    ],
    "accessors" : [
        {
            "bufferView" : 0,
            "componentType" : 5126,
            "count" : 16214,
            "max" : [
                1.496337890625,
                3.651121139526367,
                0.018436431884765625
            ],
            "min" : [
                -1.496337890625,
                -3.2764904499053955,
                -2.479278564453125
            ],
            "type" : "VEC3"
        },
        {
            "bufferView" : 1,
            "componentType" : 5126,
            "count" : 16214,
            "type" : "VEC3"
        },
        {
            "bufferView" : 2,
            "componentType" : 5126,
            "count" : 16214,
            "type" : "VEC2"
        },
        {
            "bufferView" : 3,
            "componentType" : 5126,
            "count" : 16214,
            "type" : "VEC2"
        },
        {
            "bufferView" : 4,
            "componentType" : 5126,
            "count" : 16214,
            "type" : "VEC4"
        },
        {
            "bufferView" : 5,
            "componentType" : 5123,
            "count" : 64245,
            "type" : "SCALAR"
        }
    ],
    "bufferViews" : [
        {
            "buffer" : 0,
            "byteLength" : 194568,
            "byteOffset" : 0
        },
        {
            "buffer" : 0,
            "byteLength" : 194568,
            "byteOffset" : 194568
        },
        {
            "buffer" : 0,
            "byteLength" : 129712,
            "byteOffset" : 389136
        },
        {
            "buffer" : 0,
            "byteLength" : 129712,
            "byteOffset" : 518848
        },
        {
            "buffer" : 0,
            "byteLength" : 259424,
            "byteOffset" : 648560
        },
        {
            "buffer" : 0,
            "byteLength" : 128490,
            "byteOffset" : 907984
        }
    ],
    "buffers" : [
        {
            "byteLength" : 1036476,
            "uri" : "data:application/octet-stream;base64,"
        }
    ]
}
