{
    "asset" : {
        "generator" : "Khronos glTF Blender I/O v1.0.5",
        "version" : "2.0"
    },
    "scene" : 0,
    "scenes" : [
        {
            "name" : "Scene",
            "nodes" : [
                0
            ]
        }
    ],
    "nodes" : [
        {
            "mesh" : 0,
            "name" : "ship.002"
        }
    ],
    "materials" : [
        {
            "emissiveFactor" : [
                1,
                1,
                1
            ],
            "name" : "Material.002",
            "pbrMetallicRoughness" : {}
        }
    ],
    "meshes" : [
        {
            "name" : "ship.001",
            "primitives" : [
                {
                    "attributes" : {
                        "POSITION" : 0,
                        "NORMAL" : 1,
                        "TEXCOORD_0" : 2
                    },
                    "indices" : 3,
                    "material" : 0
                }
            ]
        }
    ],
    "accessors" : [
        {
            "bufferView" : 0,
            "componentType" : 5126,
            "count" : 718,
            "max" : [
                2.414109945297241,
                1.5635499954223633,
                2.378700017929077
            ],
            "min" : [
                -2.414109945297241,
                0.2139499932527542,
                -1.4938000440597534
            ],
            "type" : "VEC3"
        },
        {
            "bufferView" : 1,
            "componentType" : 5126,
            "count" : 718,
            "type" : "VEC3"
        },
        {
            "bufferView" : 2,
            "componentType" : 5126,
            "count" : 718,
            "type" : "VEC2"
        },
        {
            "bufferView" : 3,
            "componentType" : 5123,
            "count" : 840,
            "type" : "SCALAR"
        }
    ],
    "bufferViews" : [
        {
            "buffer" : 0,
            "byteLength" : 8616,
            "byteOffset" : 0
        },
        {
            "buffer" : 0,
            "byteLength" : 8616,
            "byteOffset" : 8616
        },
        {
            "buffer" : 0,
            "byteLength" : 5744,
            "byteOffset" : 17232
        },
        {
            "buffer" : 0,
            "byteLength" : 1680,
            "byteOffset" : 22976
        }
    ],
    "buffers" : [
        {
            "byteLength" : 24656,
            "uri" : "data:application/octet-stream;base64,"
        }
    ]
}
