# 3ds Max Wavefront OBJ Exporter v0.97b - (c)2007 guruware
# File Created: 22.07.2018 14:02:06

mtllib cube.mtl

#
# object cube
#

v  -0.4224 0.4224 0.4224
v  -0.4224 0.4224 -0.4224
v  -0.4224 -0.4224 -0.4224
v  -0.4224 -0.4224 0.4224
v  0.4224 -0.4224 0.4224
v  0.4224 -0.4224 -0.4224
v  0.4224 0.4224 -0.4224
v  0.4224 0.4224 0.4224
# 8 vertices

vn -1.0000 0.0000 0.0000
vn 1.0000 0.0000 0.0000
vn 0.0000 -0.0000 1.0000
vn 0.0000 0.0000 -1.0000
vn 0.0000 -1.0000 -0.0000
vn 0.0000 1.0000 0.0000
# 6 vertex normals

vt 1.0000 1.0000 0.0000
vt 1.0000 0.0000 0.0000
vt 0.0000 0.0000 0.0000
vt 0.0000 1.0000 0.0000
# 4 texture coords

g cube
usemtl _cubedefault
s 1
f 1/1/1 2/2/1 3/3/1 
f 1/1/1 3/3/1 4/4/1 
f 5/1/2 6/2/2 7/3/2 
f 5/1/2 7/3/2 8/4/2 
f 5/1/3 8/2/3 1/3/3 
f 5/1/3 1/3/3 4/4/3 
f 7/1/4 6/2/4 3/3/4 
f 7/1/4 3/3/4 2/4/4 
f 4/1/5 3/2/5 6/3/5 
f 4/1/5 6/3/5 5/4/5 
f 8/1/6 7/2/6 2/3/6 
f 8/1/6 2/3/6 1/4/6 
# 0 polygons - 12 triangles

