{
    "asset" : {
        "generator" : "Khronos glTF Blender I/O v1.5.17",
        "version" : "2.0"
    },
    "scene" : 0,
    "scenes" : [
        {
            "name" : "Scene",
            "nodes" : [
                24
            ]
        }
    ],
    "nodes" : [
        {
            "name" : "spine.006",
            "rotation" : [
                -0.11032994836568832,
                -0.009237300604581833,
                -0.0028189243748784065,
                0.9938481450080872
            ],
            "translation" : [
                -2.7940025848494088e-09,
                0.06408572942018509,
                1.270856984092461e-07
            ]
        },
        {
            "children" : [
                0
            ],
            "name" : "spine.005",
            "rotation" : [
                -0.21550074219703674,
                -0.009657500311732292,
                -5.724756556446664e-05,
                0.9764559268951416
            ],
            "scale" : [
                1.0000001192092896,
                0.9999999403953552,
                1.0000001192092896
            ],
            "translation" : [
                2.142040500530129e-08,
                0.04448896273970604,
                -2.5204490938790514e-08
            ]
        },
        {
            "children" : [
                1
            ],
            "name" : "spine.004",
            "rotation" : [
                0.2937410771846771,
                -0.009583293460309505,
                -0.0011983601143583655,
                0.9558362364768982
            ],
            "scale" : [
                1.0000001192092896,
                0.9999997019767761,
                1
            ],
            "translation" : [
                -3.2597549104451673e-09,
                0.10319875925779343,
                2.240056318214556e-07
            ]
        },
        {
            "name" : "hand.L",
            "rotation" : [
                0.08745916187763214,
                -0.17266163229942322,
                -0.19835008680820465,
                0.9608309864997864
            ],
            "scale" : [
                1.0000003576278687,
                1,
                1.0000001192092896
            ],
            "translation" : [
                -1.9446976295967033e-07,
                1.0514451265335083,
                -2.434323960187612e-07
            ]
        },
        {
            "children" : [
                3
            ],
            "name" : "forearm.L",
            "rotation" : [
                0.3985239863395691,
                0.19801539182662964,
                -0.02908407524228096,
                0.8950545787811279
            ],
            "scale" : [
                0.9999997615814209,
                1.0000003576278687,
                1
            ],
            "translation" : [
                -3.0382003046725004e-07,
                0.43842458724975586,
                7.12879568709468e-08
            ]
        },
        {
            "children" : [
                4
            ],
            "name" : "upper_arm.L",
            "rotation" : [
                -0.31094589829444885,
                0.33697038888931274,
                -0.6580607295036316,
                0.5972601175308228
            ],
            "scale" : [
                0.9999998807907104,
                1.0000001192092896,
                1
            ],
            "translation" : [
                0.0018082847818732262,
                0.3105875551700592,
                -0.028300227597355843
            ]
        },
        {
            "children" : [
                5
            ],
            "name" : "shoulder.L",
            "rotation" : [
                -0.39337119460105896,
                -0.5285081267356873,
                -0.27794745564460754,
                0.699059009552002
            ],
            "scale" : [
                0.9999999403953552,
                1.000000238418579,
                1.0000003576278687
            ],
            "translation" : [
                0.031101910397410393,
                0.04509162902832031,
                0.07832330465316772
            ]
        },
        {
            "name" : "hand.R",
            "rotation" : [
                0.01680147275328636,
                0.20477522909641266,
                0.2548693120479584,
                0.9448949694633484
            ],
            "scale" : [
                1.0000005960464478,
                1.0000003576278687,
                1.0000004768371582
            ],
            "translation" : [
                6.645122141435422e-08,
                1.051445722579956,
                -1.0584042797745497e-07
            ]
        },
        {
            "children" : [
                7
            ],
            "name" : "forearm.R",
            "rotation" : [
                0.23629875481128693,
                -0.20985935628414154,
                0.01724487543106079,
                0.948590874671936
            ],
            "scale" : [
                0.9999995827674866,
                0.9999999403953552,
                0.9999998807907104
            ],
            "translation" : [
                1.86550664693641e-07,
                0.4384247362613678,
                4.605176684435719e-09
            ]
        },
        {
            "children" : [
                8
            ],
            "name" : "upper_arm.R",
            "rotation" : [
                -0.30507728457450867,
                -0.34390249848365784,
                0.619818389415741,
                0.6359906792640686
            ],
            "scale" : [
                1,
                0.9999997615814209,
                1
            ],
            "translation" : [
                -0.0018084984039887786,
                0.3105875849723816,
                -0.028299763798713684
            ]
        },
        {
            "children" : [
                9
            ],
            "name" : "shoulder.R",
            "rotation" : [
                -0.4104363024234772,
                0.5207396745681763,
                0.32569679617881775,
                0.6740132570266724
            ],
            "scale" : [
                1.0000001192092896,
                1.0000003576278687,
                1.0000004768371582
            ],
            "translation" : [
                -0.03407299146056175,
                0.05473928153514862,
                0.07732731848955154
            ]
        },
        {
            "children" : [
                2,
                6,
                10
            ],
            "name" : "spine.003",
            "rotation" : [
                0.08293777704238892,
                0.02227119915187359,
                -0.015835074707865715,
                0.99617999792099
            ],
            "scale" : [
                0.9999999403953552,
                0.9999997019767761,
                0.9999997019767761
            ],
            "translation" : [
                9.313230187046884e-10,
                0.17288796603679657,
                -1.1175862013601545e-08
            ]
        },
        {
            "children" : [
                11
            ],
            "name" : "spine.002",
            "rotation" : [
                0.016260603442788124,
                0.02073298580944538,
                -0.017840350046753883,
                0.9994935989379883
            ],
            "scale" : [
                1,
                0.9999995231628418,
                0.9999997019767761
            ],
            "translation" : [
                1.4202672815599726e-08,
                0.13663658499717712,
                2.260768239281674e-09
            ]
        },
        {
            "children" : [
                12
            ],
            "name" : "spine.001",
            "rotation" : [
                -0.01682448387145996,
                0.018208973109722137,
                0.017575502395629883,
                0.9995381236076355
            ],
            "scale" : [
                1.0000001192092896,
                0.9999998807907104,
                1
            ],
            "translation" : [
                -8.826924414106433e-15,
                0.15221965312957764,
                4.640422446300363e-08
            ]
        },
        {
            "name" : "pelvis.L",
            "rotation" : [
                -0.15245558321475983,
                -0.7933309078216553,
                -0.2855042517185211,
                0.5156265497207642
            ],
            "scale" : [
                1,
                0.9999997019767761,
                0.9999998807907104
            ],
            "translation" : [
                -1.0417160467568465e-08,
                8.770452097905945e-08,
                -6.449824496712608e-08
            ]
        },
        {
            "name" : "pelvis.R",
            "rotation" : [
                -0.1524558812379837,
                0.7933309674263,
                0.285504013299942,
                0.5156266093254089
            ],
            "scale" : [
                1.0000003576278687,
                0.9999997019767761,
                1
            ],
            "translation" : [
                2.744968696788419e-08,
                1.4549684124176565e-07,
                -7.351523834131513e-10
            ]
        },
        {
            "name" : "foot.L",
            "rotation" : [
                -0.6014511585235596,
                -0.08669710904359818,
                0.01899176463484764,
                0.7939643859863281
            ],
            "scale" : [
                0.9999994039535522,
                0.9999998211860657,
                1.0000001192092896
            ],
            "translation" : [
                3.350302080207257e-08,
                0.4069744348526001,
                3.7872361247082154e-08
            ]
        },
        {
            "children" : [
                16
            ],
            "name" : "shin.L",
            "rotation" : [
                0.4758511185646057,
                0.1851336807012558,
                0.031802501529455185,
                0.8592321872711182
            ],
            "scale" : [
                0.9999997615814209,
                1.000000238418579,
                0.9999998807907104
            ],
            "translation" : [
                6.339719504921959e-08,
                0.4533344507217407,
                2.551584898924375e-08
            ]
        },
        {
            "children" : [
                17
            ],
            "name" : "thigh.L",
            "rotation" : [
                0.8110469579696655,
                0.003208303824067116,
                -0.07373156398534775,
                0.5803070664405823
            ],
            "scale" : [
                1.0000007152557373,
                1.000001311302185,
                1.000001072883606
            ],
            "translation" : [
                0.09800007194280624,
                0.07081884890794754,
                0.02594231814146042
            ]
        },
        {
            "name" : "foot.R",
            "rotation" : [
                -0.3991881012916565,
                0.0044841947965323925,
                -0.0649980679154396,
                0.9145512580871582
            ],
            "scale" : [
                0.999999463558197,
                1,
                0.9999999403953552
            ],
            "translation" : [
                3.9617848557327306e-08,
                0.4069743752479553,
                9.068778439313974e-08
            ]
        },
        {
            "children" : [
                19
            ],
            "name" : "shin.R",
            "rotation" : [
                0.4980734586715698,
                -0.11798719316720963,
                -0.0038510814774781466,
                0.8590617179870605
            ],
            "scale" : [
                0.9999999403953552,
                0.9999997019767761,
                0.9999996423721313
            ],
            "translation" : [
                -6.0507243659913e-10,
                0.45333415269851685,
                -3.411529192476337e-08
            ]
        },
        {
            "children" : [
                20
            ],
            "name" : "thigh.R",
            "rotation" : [
                0.8089869022369385,
                -0.08663848042488098,
                0.09244013577699661,
                0.5740110874176025
            ],
            "scale" : [
                1.0000011920928955,
                1.000001072883606,
                1.0000011920928955
            ],
            "translation" : [
                -0.09799998998641968,
                0.07081867009401321,
                0.02594221569597721
            ]
        },
        {
            "children" : [
                13,
                14,
                15,
                18,
                21
            ],
            "name" : "spine",
            "rotation" : [
                0.12582014501094818,
                1.1111674069752553e-07,
                1.4092728761738726e-08,
                0.9920530915260315
            ],
            "scale" : [
                0.9999998807907104,
                1.0000001192092896,
                1.0000003576278687
            ],
            "translation" : [
                -1.893158786475061e-14,
                1.0098999738693237,
                -0.0551999993622303
            ]
        },
        {
            "mesh" : 0,
            "name" : "spr_judas",
            "skin" : 0
        },
        {
            "children" : [
                23,
                22
            ],
            "name" : "metarig",
            "rotation" : [
                0.06064360588788986,
                0.05017198249697685,
                0.0267614908516407,
                0.9965384602546692
            ],
            "scale" : [
                2.1657721996307373,
                2.1657721996307373,
                2.1657721996307373
            ],
            "translation" : [
                0.18393191695213318,
                -0.17572540044784546,
                -0.26647844910621643
            ]
        }
    ],
    "materials" : [
        {
            "doubleSided" : true,
            "name" : "material0 spr-judasA.pic.008",
            "pbrMetallicRoughness" : {
                "baseColorTexture" : {
                    "index" : 0
                }
            }
        }
    ],
    "meshes" : [
        {
            "name" : "spr_judas.008",
            "primitives" : [
                {
                    "attributes" : {
                        "POSITION" : 0,
                        "NORMAL" : 1,
                        "TEXCOORD_0" : 2,
                        "COLOR_0" : 3,
                        "JOINTS_0" : 4,
                        "WEIGHTS_0" : 5
                    },
                    "indices" : 6,
                    "material" : 0
                }
            ]
        }
    ],
    "textures" : [
        {
            "sampler" : 0,
            "source" : 0
        }
    ],
    "images" : [
        {
            "bufferView" : 7,
            "mimeType" : "image/png",
            "name" : "spr-judasa"
        }
    ],
    "skins" : [
        {
            "inverseBindMatrices" : 7,
            "joints" : [
                22,
                13,
                12,
                11,
                2,
                1,
                0,
                6,
                5,
                4,
                3,
                10,
                9,
                8,
                7,
                14,
                15,
                18,
                17,
                16,
                21,
                20,
                19
            ],
            "name" : "metarig"
        }
    ],
    "accessors" : [
        {
            "bufferView" : 0,
            "componentType" : 5126,
            "count" : 331,
            "max" : [
                1.8320778608322144,
                3.726006507873535,
                1.5550123453140259
            ],
            "min" : [
                -1.417887806892395,
                -0.2862219512462616,
                -0.9010132551193237
            ],
            "type" : "VEC3"
        },
        {
            "bufferView" : 1,
            "componentType" : 5126,
            "count" : 331,
            "type" : "VEC3"
        },
        {
            "bufferView" : 2,
            "componentType" : 5126,
            "count" : 331,
            "type" : "VEC2"
        },
        {
            "bufferView" : 3,
            "componentType" : 5123,
            "count" : 331,
            "normalized" : true,
            "type" : "VEC4"
        },
        {
            "bufferView" : 4,
            "componentType" : 5121,
            "count" : 331,
            "type" : "VEC4"
        },
        {
            "bufferView" : 5,
            "componentType" : 5126,
            "count" : 331,
            "type" : "VEC4"
        },
        {
            "bufferView" : 6,
            "componentType" : 5123,
            "count" : 978,
            "type" : "SCALAR"
        },
        {
            "bufferView" : 8,
            "componentType" : 5126,
            "count" : 23,
            "type" : "MAT4"
        }
    ],
    "bufferViews" : [
        {
            "buffer" : 0,
            "byteLength" : 3972,
            "byteOffset" : 0
        },
        {
            "buffer" : 0,
            "byteLength" : 3972,
            "byteOffset" : 3972
        },
        {
            "buffer" : 0,
            "byteLength" : 2648,
            "byteOffset" : 7944
        },
        {
            "buffer" : 0,
            "byteLength" : 2648,
            "byteOffset" : 10592
        },
        {
            "buffer" : 0,
            "byteLength" : 1324,
            "byteOffset" : 13240
        },
        {
            "buffer" : 0,
            "byteLength" : 5296,
            "byteOffset" : 14564
        },
        {
            "buffer" : 0,
            "byteLength" : 1956,
            "byteOffset" : 19860
        },
        {
            "buffer" : 0,
            "byteLength" : 29773,
            "byteOffset" : 21816
        },
        {
            "buffer" : 0,
            "byteLength" : 1472,
            "byteOffset" : 51592
        }
    ],
    "samplers" : [
        {
            "magFilter" : 9729,
            "minFilter" : 9987
        }
    ],
    "buffers" : [
        {
            "byteLength" : 53064,
            "uri" : "data:application/octet-stream;base64,"
        }
    ]
}
