{
    "asset" : {
        "generator" : "Khronos glTF Blender I/O v1.5.17",
        "version" : "2.0"
    },
    "scene" : 0,
    "scenes" : [
        {
            "name" : "Scene",
            "nodes" : [
                3
            ]
        }
    ],
    "nodes" : [
        {
            "name" : "BoneTop",
            "translation" : [
                0,
                1,
                0
            ]
        },
        {
            "children" : [
                0
            ],
            "name" : "BonBot"
        },
        {
            "mesh" : 0,
            "name" : "spr_tankkiller",
            "skin" : 0
        },
        {
            "children" : [
                2,
                1
            ],
            "name" : "Armature",
            "translation" : [
                0.0073722004890441895,
                3.09220552444458,
                -2.2545080184936523
            ]
        }
    ],
    "materials" : [
        {
            "name" : "material0 spr_tankkillA.pic.001",
            "pbrMetallicRoughness" : {}
        },
        {
            "name" : "material1 spr_treads.pic.001",
            "pbrMetallicRoughness" : {}
        }
    ],
    "meshes" : [
        {
            "name" : "spr_tankkiller.001",
            "primitives" : [
                {
                    "attributes" : {
                        "POSITION" : 0,
                        "NORMAL" : 1,
                        "TEXCOORD_0" : 2,
                        "JOINTS_0" : 3,
                        "WEIGHTS_0" : 4
                    },
                    "indices" : 5,
                    "material" : 0
                },
                {
                    "attributes" : {
                        "POSITION" : 6,
                        "NORMAL" : 7,
                        "TEXCOORD_0" : 8,
                        "JOINTS_0" : 9,
                        "WEIGHTS_0" : 10
                    },
                    "indices" : 11,
                    "material" : 1
                }
            ]
        }
    ],
    "skins" : [
        {
            "inverseBindMatrices" : 12,
            "joints" : [
                1,
                0
            ],
            "name" : "Armature"
        }
    ],
    "accessors" : [
        {
            "bufferView" : 0,
            "componentType" : 5126,
            "count" : 870,
            "max" : [
                2.7823050022125244,
                5.139124393463135,
                3.324767589569092
            ],
            "min" : [
                -2.782301902770996,
                -3.000000106112566e-06,
                -3.7969491481781006
            ],
            "type" : "VEC3"
        },
        {
            "bufferView" : 1,
            "componentType" : 5126,
            "count" : 870,
            "type" : "VEC3"
        },
        {
            "bufferView" : 2,
            "componentType" : 5126,
            "count" : 870,
            "type" : "VEC2"
        },
        {
            "bufferView" : 3,
            "componentType" : 5121,
            "count" : 870,
            "type" : "VEC4"
        },
        {
            "bufferView" : 4,
            "componentType" : 5126,
            "count" : 870,
            "type" : "VEC4"
        },
        {
            "bufferView" : 5,
            "componentType" : 5123,
            "count" : 870,
            "type" : "SCALAR"
        },
        {
            "bufferView" : 6,
            "componentType" : 5126,
            "count" : 72,
            "max" : [
                2.6001100540161133,
                1.571894884109497,
                3.1977648735046387
            ],
            "min" : [
                -2.600109815597534,
                -2.000000222324161e-06,
                -1.5285272598266602
            ],
            "type" : "VEC3"
        },
        {
            "bufferView" : 7,
            "componentType" : 5126,
            "count" : 72,
            "type" : "VEC3"
        },
        {
            "bufferView" : 8,
            "componentType" : 5126,
            "count" : 72,
            "type" : "VEC2"
        },
        {
            "bufferView" : 9,
            "componentType" : 5121,
            "count" : 72,
            "type" : "VEC4"
        },
        {
            "bufferView" : 10,
            "componentType" : 5126,
            "count" : 72,
            "type" : "VEC4"
        },
        {
            "bufferView" : 11,
            "componentType" : 5123,
            "count" : 72,
            "type" : "SCALAR"
        },
        {
            "bufferView" : 12,
            "componentType" : 5126,
            "count" : 2,
            "type" : "MAT4"
        }
    ],
    "bufferViews" : [
        {
            "buffer" : 0,
            "byteLength" : 10440,
            "byteOffset" : 0
        },
        {
            "buffer" : 0,
            "byteLength" : 10440,
            "byteOffset" : 10440
        },
        {
            "buffer" : 0,
            "byteLength" : 6960,
            "byteOffset" : 20880
        },
        {
            "buffer" : 0,
            "byteLength" : 3480,
            "byteOffset" : 27840
        },
        {
            "buffer" : 0,
            "byteLength" : 13920,
            "byteOffset" : 31320
        },
        {
            "buffer" : 0,
            "byteLength" : 1740,
            "byteOffset" : 45240
        },
        {
            "buffer" : 0,
            "byteLength" : 864,
            "byteOffset" : 46980
        },
        {
            "buffer" : 0,
            "byteLength" : 864,
            "byteOffset" : 47844
        },
        {
            "buffer" : 0,
            "byteLength" : 576,
            "byteOffset" : 48708
        },
        {
            "buffer" : 0,
            "byteLength" : 288,
            "byteOffset" : 49284
        },
        {
            "buffer" : 0,
            "byteLength" : 1152,
            "byteOffset" : 49572
        },
        {
            "buffer" : 0,
            "byteLength" : 144,
            "byteOffset" : 50724
        },
        {
            "buffer" : 0,
            "byteLength" : 128,
            "byteOffset" : 50868
        }
    ],
    "buffers" : [
        {
            "byteLength" : 50996,
            "uri" : "data:application/octet-stream;base64,"
        }
    ]
}
