{
    "asset" : {
        "generator" : "Khronos glTF Blender I/O v1.5.17",
        "version" : "2.0"
    },
    "scene" : 0,
    "scenes" : [
        {
            "name" : "Scene",
            "nodes" : [
                0,
                1,
                30
            ]
        }
    ],
    "nodes" : [
        {
            "name" : "Light",
            "rotation" : [
                0.16907575726509094,
                0.7558803558349609,
                -0.27217137813568115,
                0.570947527885437
            ],
            "translation" : [
                4.076245307922363,
                5.903861999511719,
                -1.0054539442062378
            ]
        },
        {
            "name" : "Camera",
            "rotation" : [
                0.483536034822464,
                0.33687159419059753,
                -0.20870360732078552,
                0.7804827094078064
            ],
            "translation" : [
                7.358891487121582,
                4.958309173583984,
                6.925790786743164
            ]
        },
        {
            "name" : "spine.006",
            "rotation" : [
                -0.09167011827230453,
                -3.5342886793186465e-14,
                -2.185585934455503e-08,
                0.9957895278930664
            ],
            "scale" : [
                1,
                0.9999998807907104,
                0.9999998807907104
            ],
            "translation" : [
                -8.881784197001252e-15,
                0.06408582627773285,
                3.5390257835388184e-08
            ]
        },
        {
            "children" : [
                2
            ],
            "name" : "spine.005",
            "rotation" : [
                -0.19715380668640137,
                1.1686955758705153e-07,
                -2.3502565227317973e-08,
                0.9803726673126221
            ],
            "scale" : [
                1,
                1,
                0.9999998807907104
            ],
            "translation" : [
                0,
                0.04448927566409111,
                -9.171733950097405e-08
            ]
        },
        {
            "children" : [
                3
            ],
            "name" : "spine.004",
            "rotation" : [
                0.31163477897644043,
                0,
                0,
                0.9502019882202148
            ],
            "scale" : [
                1,
                0.9999998807907104,
                0.9999998807907104
            ],
            "translation" : [
                0,
                0.10319898277521133,
                -6.873689528674731e-08
            ]
        },
        {
            "name" : "hand.L",
            "rotation" : [
                0.30425387620925903,
                -0.052659641951322556,
                0.18036065995693207,
                0.933877170085907
            ],
            "scale" : [
                1.0000001192092896,
                1,
                1
            ],
            "translation" : [
                8.904416404220683e-08,
                1.0514428615570068,
                -2.937081688969556e-09
            ]
        },
        {
            "children" : [
                5
            ],
            "name" : "forearm.L",
            "rotation" : [
                0.41177913546562195,
                0.19412611424922943,
                -0.15096887946128845,
                0.8774744868278503
            ],
            "scale" : [
                1,
                0.9999999403953552,
                1
            ],
            "translation" : [
                -1.938243165966469e-08,
                0.4384242296218872,
                4.7030280114768175e-08
            ]
        },
        {
            "children" : [
                6
            ],
            "name" : "upper_arm.L",
            "rotation" : [
                -0.4809967577457428,
                0.5372044444084167,
                -0.47439393401145935,
                0.5049791932106018
            ],
            "scale" : [
                1.0000001192092896,
                1.0000001192092896,
                1
            ],
            "translation" : [
                0.0018083722097799182,
                0.3105872869491577,
                -0.028300024569034576
            ]
        },
        {
            "children" : [
                7
            ],
            "name" : "shoulder.L",
            "rotation" : [
                -0.45270460844039917,
                -0.4758475124835968,
                -0.3405347466468811,
                0.6728029251098633
            ],
            "scale" : [
                1.0000001192092896,
                1,
                1
            ],
            "translation" : [
                0.031101923435926437,
                0.04509139433503151,
                0.07832322269678116
            ]
        },
        {
            "name" : "hand.R",
            "rotation" : [
                0.30425387620925903,
                0.052659641951322556,
                -0.18036065995693207,
                0.933877170085907
            ],
            "scale" : [
                1.0000001192092896,
                1,
                1
            ],
            "translation" : [
                -6.705522537231445e-08,
                1.0514428615570068,
                2.9802322387695312e-08
            ]
        },
        {
            "children" : [
                9
            ],
            "name" : "forearm.R",
            "rotation" : [
                0.41177913546562195,
                -0.19412611424922943,
                0.15096887946128845,
                0.8774744868278503
            ],
            "scale" : [
                1,
                0.9999999403953552,
                1
            ],
            "translation" : [
                1.938243165966469e-08,
                0.4384242296218872,
                4.7030280114768175e-08
            ]
        },
        {
            "children" : [
                10
            ],
            "name" : "upper_arm.R",
            "rotation" : [
                -0.4809967577457428,
                -0.5372044444084167,
                0.47439393401145935,
                0.5049791932106018
            ],
            "scale" : [
                1.0000001192092896,
                1.0000001192092896,
                1
            ],
            "translation" : [
                -0.0018083738395944238,
                0.3105873465538025,
                -0.028300020843744278
            ]
        },
        {
            "children" : [
                11
            ],
            "name" : "shoulder.R",
            "rotation" : [
                -0.45270460844039917,
                0.4758475124835968,
                0.3405347466468811,
                0.6728029251098633
            ],
            "scale" : [
                1.0000001192092896,
                1,
                1
            ],
            "translation" : [
                -0.03407298028469086,
                0.05473926290869713,
                0.07732722163200378
            ]
        },
        {
            "children" : [
                4,
                8,
                12
            ],
            "name" : "spine.003",
            "rotation" : [
                -0.010750976391136646,
                0,
                0,
                0.9999422430992126
            ],
            "translation" : [
                0,
                0.1728876233100891,
                4.885773563501061e-09
            ]
        },
        {
            "children" : [
                13
            ],
            "name" : "spine.002",
            "rotation" : [
                -0.07746415585279465,
                0,
                0,
                0.9969951510429382
            ],
            "scale" : [
                1,
                0.9999999403953552,
                0.9999999403953552
            ],
            "translation" : [
                0,
                0.13663654029369354,
                2.1032741770454777e-08
            ]
        },
        {
            "children" : [
                14
            ],
            "name" : "spine.001",
            "rotation" : [
                -0.0644763931632042,
                0,
                0,
                0.9979192614555359
            ],
            "scale" : [
                1,
                1.0000001192092896,
                1
            ],
            "translation" : [
                0,
                0.15221953392028809,
                -1.4901161193847656e-08
            ]
        },
        {
            "name" : "pelvis.L",
            "rotation" : [
                -0.1524551510810852,
                -0.7933306694030762,
                -0.28550392389297485,
                0.5156272053718567
            ],
            "scale" : [
                1.0000001192092896,
                1.0000001192092896,
                1
            ],
            "translation" : [
                -1.2569787877225735e-08,
                1.9854830668464274e-08,
                3.442701412836868e-08
            ]
        },
        {
            "name" : "pelvis.R",
            "rotation" : [
                -0.1524551510810852,
                0.7933306694030762,
                0.28550392389297485,
                0.5156272053718567
            ],
            "scale" : [
                1.0000001192092896,
                1.0000001192092896,
                1
            ],
            "translation" : [
                1.2569787877225735e-08,
                1.9854830668464274e-08,
                3.442701412836868e-08
            ]
        },
        {
            "name" : "toe.L",
            "rotation" : [
                1.9628188852038875e-07,
                -0.9259103536605835,
                0.37774336338043213,
                1.8028137560577306e-07
            ],
            "scale" : [
                1,
                0.9999998211860657,
                1.0000001192092896
            ],
            "translation" : [
                -2.9175319937735367e-08,
                0.20306433737277985,
                3.328650688416701e-09
            ]
        },
        {
            "name" : "heel.02.L",
            "rotation" : [
                0.62187659740448,
                0.6218768358230591,
                -0.3365553319454193,
                0.33655497431755066
            ],
            "scale" : [
                1.0000001192092896,
                1,
                1.0000001192092896
            ],
            "translation" : [
                -0.03799993172287941,
                0.22140619158744812,
                0.09725488722324371
            ]
        },
        {
            "children" : [
                18,
                19
            ],
            "name" : "foot.L",
            "rotation" : [
                -0.4333428144454956,
                -0.00876834336668253,
                0.03882642090320587,
                0.9003497362136841
            ],
            "scale" : [
                0.9999998211860657,
                1,
                1.0000001192092896
            ],
            "translation" : [
                -1.3282336119857518e-08,
                0.40697354078292847,
                -1.4402179004946447e-08
            ]
        },
        {
            "children" : [
                20
            ],
            "name" : "shin.L",
            "rotation" : [
                0.21712465584278107,
                0.015861213207244873,
                0.04735039547085762,
                0.974865734577179
            ],
            "scale" : [
                0.9999997615814209,
                0.9999998807907104,
                0.9999999403953552
            ],
            "translation" : [
                -9.591796690244792e-09,
                0.45333370566368103,
                6.168847477283634e-08
            ]
        },
        {
            "children" : [
                21
            ],
            "name" : "thigh.L",
            "rotation" : [
                0.978765606880188,
                0.08755238354206085,
                -0.013251355849206448,
                0.18487001955509186
            ],
            "scale" : [
                1,
                0.9999999403953552,
                1.0000001192092896
            ],
            "translation" : [
                0.09799997508525848,
                0.07081863284111023,
                0.025942236185073853
            ]
        },
        {
            "name" : "toe.R",
            "rotation" : [
                1.9628188852038875e-07,
                0.9259103536605835,
                -0.37774336338043213,
                1.8028137560577306e-07
            ],
            "scale" : [
                1,
                0.9999998211860657,
                1.0000001192092896
            ],
            "translation" : [
                2.9175319937735367e-08,
                0.20306433737277985,
                3.328650688416701e-09
            ]
        },
        {
            "name" : "heel.02.R",
            "rotation" : [
                0.62187659740448,
                -0.6218768358230591,
                0.3365553319454193,
                0.33655497431755066
            ],
            "scale" : [
                1.0000001192092896,
                1,
                1.0000001192092896
            ],
            "translation" : [
                0.03799993172287941,
                0.22140619158744812,
                0.09725488722324371
            ]
        },
        {
            "children" : [
                23,
                24
            ],
            "name" : "foot.R",
            "rotation" : [
                -0.4333428144454956,
                0.00876834336668253,
                -0.03882642090320587,
                0.9003497362136841
            ],
            "scale" : [
                0.9999998211860657,
                1,
                1.0000001192092896
            ],
            "translation" : [
                1.3282336119857518e-08,
                0.40697354078292847,
                -1.4402179004946447e-08
            ]
        },
        {
            "children" : [
                25
            ],
            "name" : "shin.R",
            "rotation" : [
                0.21712465584278107,
                -0.015861213207244873,
                -0.04735039547085762,
                0.974865734577179
            ],
            "scale" : [
                0.9999997615814209,
                0.9999998807907104,
                0.9999999403953552
            ],
            "translation" : [
                9.591796690244792e-09,
                0.45333370566368103,
                6.168847477283634e-08
            ]
        },
        {
            "children" : [
                26
            ],
            "name" : "thigh.R",
            "rotation" : [
                0.978765606880188,
                -0.08755238354206085,
                0.013251355849206448,
                0.18487001955509186
            ],
            "scale" : [
                1,
                0.9999999403953552,
                1.0000001192092896
            ],
            "translation" : [
                -0.09799997508525848,
                0.07081863284111023,
                0.025942236185073853
            ]
        },
        {
            "children" : [
                15,
                16,
                17,
                22,
                27
            ],
            "name" : "spine",
            "rotation" : [
                0.1258196234703064,
                0,
                0,
                0.9920531511306763
            ],
            "scale" : [
                1,
                0.9999999403953552,
                0.9999998807907104
            ],
            "translation" : [
                0,
                1.0098999738693237,
                -0.0551999993622303
            ]
        },
        {
            "mesh" : 0,
            "name" : "spr_judas",
            "skin" : 0
        },
        {
            "children" : [
                29,
                28
            ],
            "name" : "metarig",
            "scale" : [
                2.1657721996307373,
                2.1657721996307373,
                2.1657721996307373
            ]
        }
    ],
    "materials" : [
        {
            "name" : "material0 spr-judasA.pic.001",
            "pbrMetallicRoughness" : {
                "baseColorTexture" : {
                    "index" : 0
                }
            }
        }
    ],
    "meshes" : [
        {
            "name" : "spr_judas.001",
            "primitives" : [
                {
                    "attributes" : {
                        "POSITION" : 0,
                        "NORMAL" : 1,
                        "TEXCOORD_0" : 2,
                        "COLOR_0" : 3,
                        "JOINTS_0" : 4,
                        "WEIGHTS_0" : 5
                    },
                    "indices" : 6,
                    "material" : 0
                }
            ]
        }
    ],
    "textures" : [
        {
            "sampler" : 0,
            "source" : 0
        }
    ],
    "images" : [
        {
            "bufferView" : 7,
            "mimeType" : "image/png",
            "name" : "spr-judasa"
        }
    ],
    "skins" : [
        {
            "inverseBindMatrices" : 7,
            "joints" : [
                28,
                15,
                14,
                13,
                4,
                3,
                2,
                8,
                7,
                6,
                5,
                12,
                11,
                10,
                9,
                16,
                17,
                22,
                21,
                20,
                18,
                19,
                27,
                26,
                25,
                23,
                24
            ],
            "name" : "metarig"
        }
    ],
    "accessors" : [
        {
            "bufferView" : 0,
            "componentType" : 5126,
            "count" : 311,
            "max" : [
                1.5707982778549194,
                3.9063186645507812,
                1.5780491828918457
            ],
            "min" : [
                -1.5878715515136719,
                -8.074998731899541e-06,
                -0.737487256526947
            ],
            "type" : "VEC3"
        },
        {
            "bufferView" : 1,
            "componentType" : 5126,
            "count" : 311,
            "type" : "VEC3"
        },
        {
            "bufferView" : 2,
            "componentType" : 5126,
            "count" : 311,
            "type" : "VEC2"
        },
        {
            "bufferView" : 3,
            "componentType" : 5123,
            "count" : 311,
            "normalized" : true,
            "type" : "VEC4"
        },
        {
            "bufferView" : 4,
            "componentType" : 5121,
            "count" : 311,
            "type" : "VEC4"
        },
        {
            "bufferView" : 5,
            "componentType" : 5126,
            "count" : 311,
            "type" : "VEC4"
        },
        {
            "bufferView" : 6,
            "componentType" : 5123,
            "count" : 978,
            "type" : "SCALAR"
        },
        {
            "bufferView" : 8,
            "componentType" : 5126,
            "count" : 27,
            "type" : "MAT4"
        }
    ],
    "bufferViews" : [
        {
            "buffer" : 0,
            "byteLength" : 3732,
            "byteOffset" : 0
        },
        {
            "buffer" : 0,
            "byteLength" : 3732,
            "byteOffset" : 3732
        },
        {
            "buffer" : 0,
            "byteLength" : 2488,
            "byteOffset" : 7464
        },
        {
            "buffer" : 0,
            "byteLength" : 2488,
            "byteOffset" : 9952
        },
        {
            "buffer" : 0,
            "byteLength" : 1244,
            "byteOffset" : 12440
        },
        {
            "buffer" : 0,
            "byteLength" : 4976,
            "byteOffset" : 13684
        },
        {
            "buffer" : 0,
            "byteLength" : 1956,
            "byteOffset" : 18660
        },
        {
            "buffer" : 0,
            "byteLength" : 29773,
            "byteOffset" : 20616
        },
        {
            "buffer" : 0,
            "byteLength" : 1728,
            "byteOffset" : 50392
        }
    ],
    "samplers" : [
        {
            "magFilter" : 9729,
            "minFilter" : 9987
        }
    ],
    "buffers" : [
        {
            "byteLength" : 52120,
            "uri" : "data:application/octet-stream;base64,"
        }
    ]
}
